<?xml version="1.0" encoding="utf-8"?>
<!-- Generator: Adobe Illustrator 23.0.4, SVG Export Plug-In . SVG Version: 6.00 Build 0)  -->
<svg version="1.1" xmlns="http://www.w3.org/2000/svg" xmlns:xlink="http://www.w3.org/1999/xlink" x="0px" y="0px"
	 viewBox="0 0 370 310" style="enable-background:new 0 0 370 310;" xml:space="preserve">
<style type="text/css">
	.st0{fill:#FFFFFF;}
	.st1{fill-rule:evenodd;clip-rule:evenodd;fill:#FFFFFF;}
	.st2{fill:#2C3038;}
	.st3{fill-rule:evenodd;clip-rule:evenodd;fill:#2C3038;}
	.st4{fill-rule:evenodd;clip-rule:evenodd;fill:#4580FF;}
	.st5{fill:#4680FF;}
</style>
<g id="logo-horizontal">
</g>
<g id="logo-vertical">
	<g>
		<path id="Combined-Shape_2_" class="st2" d="M78.8,197.5c-14.6-20.2-23.2-45-23.2-71.8c0-67.6,54.7-122.3,122.1-122.3
			s122.1,54.8,122.1,122.3c0,26.8-8.6,51.6-23.2,71.8l-58.7-95.4l-5.7,9.6l5.7,26.6l-40.3-69.1l-24.9,42.2l5.8,26.9l-21.1-36.2
			L78.8,197.5z"/>
		<g>
			<path id="NordVPN_2_" class="st2" d="M39.8,305.8H52v-57.5H40.1v37.5L15,248.3H1.3v57.5h11.8v-39.7L39.8,305.8z M59,286.3
				c0-11.7,9.7-20.6,21.7-20.6c11.9,0,21.4,8.7,21.4,20.3c0,11.8-9.7,20.6-21.6,20.6C68.5,306.7,59,298.1,59,286.3z M70.8,286.1
				c0,5.9,4.4,10.1,9.8,10.1c5.4,0,9.7-4.1,9.7-10.1c0-5.9-4.4-10-9.8-10C75.1,276.1,70.8,280.2,70.8,286.1z M132.4,266.6
				c-0.8-0.2-2.2-0.4-3.1-0.4c-4.1,0-8.1,1.7-10.2,6.2h-0.1v-5.7H108v39.2h11.3v-17.2c0-7.3,3.8-11.1,9.4-11.1c0.5,0,2.1,0,3.7,0.3
				V266.6z M164.8,305.8v-5h-0.1c-3.7,5.4-9.6,5.7-12.3,5.7c-11.5,0-18.8-9.8-18.8-20.4c0-9.9,7.6-20.3,18.9-20.3
				c2.3,0,7.8,0.4,11.8,5.2h0.1v-22.8H176v57.5H164.8z M164.8,286.1c0-5.9-4.4-9.9-9.8-9.9s-9.8,4-9.8,9.9c0,5.9,4.4,10.1,9.8,10.1
				S164.8,292.1,164.8,286.1z M201.1,305.8h13.8l21-57.5h-12.7L208.1,292l-15-43.7h-12.9L201.1,305.8z M283.6,266.7
				c0,12.7-9,18.8-21.1,18.8h-9.1v20.3h-12v-57.5h21.5C274.5,248.3,283.6,254.5,283.6,266.7z M271.5,267c0-5.6-4.7-7.5-9.7-7.5h-8.5
				v14.9h8.6C266.7,274.4,271.5,272.4,271.5,267z M328.6,305.8h12.2v-57.5H329v37.5l-25.1-37.5h-13.7v57.5H302v-39.7L328.6,305.8z"
				/>
			<g>
				<path class="st2" d="M347.5,258.9c0-5.8,4.7-10.6,10.6-10.6c5.9,0,10.6,4.8,10.6,10.6c0,5.9-4.7,10.6-10.6,10.6
					C352.2,269.5,347.5,264.7,347.5,258.9z M349.5,258.9c0,4.8,3.8,8.7,8.6,8.7c4.7,0,8.6-3.9,8.6-8.7c0-4.8-3.9-8.7-8.6-8.7
					C353.3,250.2,349.5,254.1,349.5,258.9z M356.5,264.9H354v-12.1h4.8c2.4,0,4.3,1.2,4.3,3.8c0,1.8-1,2.9-2.3,3.5l2.5,4.8h-2.7
					l-2.2-4.4h-1.9V264.9z M358.6,255.2h-2.1v3h2.1c0.9,0,1.9-0.4,1.9-1.5C360.5,255.5,359.5,255.2,358.6,255.2z"/>
			</g>
		</g>
	</g>
</g>
<g id="logo-teams">
</g>
</svg>
